<svg width="32" height="34" viewBox="0 0 32 34" fill="none" xmlns="http://www.w3.org/2000/svg">
<path d="M12.6676 16.588C12.6676 14.6794 14.1595 13.1319 16.0004 13.1319C17.8413 13.1319 19.334 14.6794 19.334 16.588C19.334 18.4965 17.8413 20.0441 16.0004 20.0441C14.1595 20.0441 12.6676 18.4965 12.6676 16.588ZM10.8655 16.588C10.8655 19.5282 13.1644 21.9116 16.0004 21.9116C18.8364 21.9116 21.1353 19.5282 21.1353 16.588C21.1353 13.6477 18.8364 11.2644 16.0004 11.2644C13.1644 11.2644 10.8655 13.6477 10.8655 16.588ZM20.1386 11.0533C20.1385 11.2994 20.2088 11.5399 20.3406 11.7446C20.4723 11.9492 20.6597 12.1087 20.8789 12.203C21.0982 12.2973 21.3394 12.322 21.5722 12.2741C21.805 12.2262 22.0189 12.1078 22.1868 11.9339C22.3547 11.7599 22.469 11.5383 22.5154 11.297C22.5618 11.0557 22.5382 10.8055 22.4474 10.5782C22.3567 10.3508 22.203 10.1564 22.0057 10.0196C21.8084 9.88285 21.5764 9.80979 21.3391 9.80969H21.3386C21.0205 9.80984 20.7154 9.9409 20.4904 10.1741C20.2654 10.4072 20.1389 10.7235 20.1386 11.0533ZM11.9604 25.0269C10.9855 24.9808 10.4555 24.8125 10.1034 24.6702C9.63651 24.4818 9.30339 24.2574 8.95315 23.8947C8.60291 23.5321 8.38611 23.1871 8.20515 22.7031C8.06787 22.3381 7.90547 21.7886 7.86115 20.7778C7.81267 19.6849 7.80299 19.3567 7.80299 16.5881C7.80299 13.8194 7.81347 13.4921 7.86115 12.3983C7.90555 11.3875 8.06915 10.8391 8.20515 10.473C8.38691 9.98901 8.60339 9.64364 8.95315 9.28053C9.30291 8.91742 9.63571 8.69265 10.1034 8.50504C10.4554 8.36272 10.9855 8.19435 11.9604 8.1484C13.0145 8.09814 13.3311 8.0881 16.0004 8.0881C18.6697 8.0881 18.9867 8.09897 20.0416 8.1484C21.0166 8.19443 21.5456 8.36405 21.8987 8.50504C22.3655 8.69265 22.6987 8.91792 23.0489 9.28053C23.3991 9.64315 23.6151 9.98901 23.7969 10.473C23.9342 10.838 24.0966 11.3875 24.1409 12.3983C24.1894 13.4921 24.1991 13.8194 24.1991 16.5881C24.1991 19.3567 24.1894 19.684 24.1409 20.7778C24.0965 21.7886 23.9333 22.338 23.7969 22.7031C23.6151 23.1871 23.3987 23.5325 23.0489 23.8947C22.6991 24.257 22.3655 24.4818 21.8987 24.6702C21.5467 24.8126 21.0166 24.9809 20.0416 25.0269C18.9875 25.0771 18.6709 25.0872 16.0004 25.0872C13.3299 25.0872 13.0142 25.0771 11.9604 25.0269ZM11.8776 6.28324C10.8131 6.33351 10.0856 6.50851 9.45035 6.76479C8.79243 7.02946 8.23547 7.38452 7.67891 7.96062C7.12235 8.53673 6.78075 9.11507 6.52547 9.79717C6.27827 10.4562 6.10947 11.21 6.06099 12.3137C6.01171 13.4191 6.00043 13.7725 6.00043 16.588C6.00043 19.4035 6.01171 19.7569 6.06099 20.8623C6.10947 21.9661 6.27827 22.7197 6.52547 23.3788C6.78075 24.0605 7.12243 24.6395 7.67891 25.2153C8.23539 25.7912 8.79243 26.1457 9.45035 26.4111C10.0868 26.6674 10.8131 26.8424 11.8776 26.8927C12.9444 26.943 13.2847 26.9555 16.0004 26.9555C18.7161 26.9555 19.057 26.9438 20.1232 26.8927C21.1879 26.8424 21.9148 26.6674 22.5505 26.4111C23.208 26.1457 23.7654 25.7914 24.3219 25.2153C24.8785 24.6392 25.2194 24.0605 25.4754 23.3788C25.7226 22.7197 25.8922 21.966 25.9399 20.8623C25.9883 19.756 25.9996 19.4035 25.9996 16.588C25.9996 13.7725 25.9883 13.4191 25.9399 12.3137C25.8914 11.2099 25.7226 10.4558 25.4754 9.79717C25.2194 9.11548 24.8776 8.53764 24.3219 7.96062C23.7663 7.38361 23.208 7.02946 22.5513 6.76479C21.9148 6.50851 21.1878 6.33268 20.124 6.28324C19.0578 6.23298 18.7169 6.22046 16.0012 6.22046C13.2855 6.22046 12.9444 6.23215 11.8776 6.28324Z" fill="#121212" fill-opacity="0.6"/>
</svg>
