<svg width="152" height="57" viewBox="0 0 152 57" fill="none" xmlns="http://www.w3.org/2000/svg" opacity="0.4">
<path d="M34.1761 13.5139C31.0108 16.9125 27.7809 20.0475 24.9348 23.5033C20.2457 29.2007 17.5744 35.7381 17.9962 43.2912C18.4331 51.0926 21.9253 57.905 31.6644 56.9045C33.7506 56.6907 36.4599 56.0988 37.5923 54.6592C39.1046 52.7308 39.3554 49.8057 40.1648 47.2549C38.5764 46.6821 38.0027 47.6024 37.3225 48.454C36.1027 49.9776 34.9779 51.6463 33.5074 52.8873C31.6112 54.4873 29.3085 55.2931 26.8461 54.0597C24.4826 52.8759 23.6276 50.6917 23.7112 48.221C23.8062 45.4411 23.9734 42.6344 24.4902 39.908C26.2799 30.415 31.3224 22.6174 37.0147 15.7402C39.9292 16.4619 42.4333 17.4051 45.0021 17.638C48.5322 17.9626 51.9407 17.1759 54.5246 14.4304C56.8198 11.9903 56.0446 8.96217 52.8337 8.11063C49.2694 7.16744 45.6481 7.26672 42.3573 9.04618C41.0046 9.77553 40.1648 9.5006 38.9792 8.90871C33.8494 6.34644 28.7081 3.81091 23.4984 1.43575C20.5915 0.110698 17.525 -0.43536 14.2874 0.389454C9.38936 1.63813 6.39504 5.18178 6.64583 10.2338C6.74843 12.3225 7.74401 14.3502 8.1544 16.4428C8.43559 17.8824 8.62179 19.4098 8.42419 20.8418C8.33299 21.4986 7.20822 22.4838 6.56984 22.4723C5.68066 22.4571 4.49509 21.8614 3.9859 21.1282C2.88773 19.5435 3.74271 18.0084 4.72688 16.6032C5.10307 16.0686 5.36907 15.4538 5.77186 14.7168C3.27912 14.5068 1.51596 15.2514 0.649584 16.8246C-0.311792 18.5697 -0.163596 20.3797 0.824379 22.0637C2.56854 25.0308 6.71803 26.0885 9.81496 24.4236C12.6079 22.9229 14.1126 18.9325 12.3343 15.8891C11.4109 14.3082 10.3925 12.7808 9.47296 11.196C7.52361 7.84333 9.29057 4.0973 13.1665 3.88728C15.1462 3.78036 17.3958 4.13549 19.1399 5.02903C24.2926 7.68295 29.2629 10.7073 34.1761 13.5139Z" fill="white"/>
<path d="M60.7269 9.93211C60.4153 10.692 60.1759 11.3832 59.8567 12.04C56.3646 19.2036 52.9105 26.3864 49.3272 33.5042C48.3582 35.4288 48.2366 37.3075 48.533 39.4269C50.4215 39.2245 52.2075 39.0374 54.0467 38.8388C52.4013 35.5395 55.0384 33.5271 55.9618 30.5754C57.5654 32.7863 57.9682 34.9286 58.2608 37.0861C58.8193 41.1834 60.1645 44.8492 64.3406 46.4378C70.2608 48.6907 75.9911 47.8697 81.3072 44.5399C82.3559 43.8831 82.9905 42.5581 83.9519 41.3743C80.8854 40.5381 79.9012 41.0727 78.4686 42.8789C77.5871 43.9939 76.1963 45.1853 74.8891 45.3877C68.9385 46.3156 64.3216 45.1509 62.6268 37.9147C61.8593 34.6345 61.3311 31.3773 58.3139 29.1167C67.3311 26.5468 71.0398 22.4303 69.7517 16.4772C66.5483 18.4208 63.3982 20.3301 60.1873 22.2776C61.0271 20.5058 61.8707 18.6996 62.737 16.9048C63.8086 14.6824 64.9258 12.4867 65.9708 10.2529C66.4685 9.19513 66.2975 7.9579 65.1272 7.77079C62.9308 7.4233 60.7079 7.67915 58.1088 8.88964C59.2107 9.32878 59.8035 9.56553 60.7269 9.93211Z" fill="white"/>
<path d="M90.776 39.3696C91.8704 39.2054 92.6114 39.1366 93.3333 38.9762C94.5683 38.7051 95.3359 38.3538 95.6741 36.6775C96.5481 32.3586 99.0712 28.8494 102.214 25.8098C100.591 30.266 97.1066 34.0923 97.8932 39.4841C100.15 39.0488 102.225 38.644 104.304 38.2431C104.3 38.0445 104.3 37.8459 104.296 37.6436C103.654 37.3724 103.016 37.1013 102.21 36.7576C102.662 35.6732 103.084 34.6345 103.528 33.6035C104.706 30.877 105.983 28.1926 107.024 25.4164C107.336 24.5802 107.351 23.1368 106.846 22.6365C106.359 22.1554 104.938 22.2776 104.095 22.5907C102.829 23.0566 101.705 23.9196 100.591 24.5725C100.595 22.1859 99.9984 21.6093 97.593 22.2699C96.4873 22.5716 95.5107 23.362 94.4239 23.9539C94.3859 23.3926 94.3479 22.858 94.2947 22.1401C91.555 22.7816 88.7658 22.3959 86.2503 23.4384C86.2655 23.6217 86.2845 23.805 86.2997 23.9883C87.2535 24.225 88.2111 24.4618 89.674 24.8246C88.3175 27.4861 87.1129 30.0828 85.6955 32.561C84.4567 34.73 83.788 36.9371 84.2326 39.5223C85.0495 39.3772 85.8361 39.1175 86.6227 39.1213C88.1161 39.129 88.3669 38.4225 88.7886 37.0211C90.1186 32.5954 92.4328 28.6432 95.7539 25.3401C94.5189 30.098 90.6468 33.9013 90.776 39.3696Z" fill="white"/>
<path d="M129.702 24.3244C129.862 24.4427 130.025 24.5649 130.185 24.6833C129.999 25.3172 129.881 25.9816 129.615 26.5735C128.213 29.678 126.613 32.7062 125.386 35.8794C124.181 38.9877 124.428 39.1748 127.62 39.0145C128.376 38.9763 129.14 39.0068 129.892 38.9228C130.394 38.8655 130.88 38.6593 131.887 38.3729C130.831 37.8574 130.303 37.6016 129.588 37.2541C129.847 36.4942 130.018 35.6885 130.383 34.9897C131.435 32.9696 132.666 31.0374 133.628 28.9754C134.308 27.5129 134.844 25.9282 135.102 24.3396C135.322 22.9802 134.593 21.8881 132.993 22.2203C131.139 22.6022 129.33 23.1902 127.544 23.679C127.707 22.5182 126.955 22.2661 125.606 22.5334C123.873 22.8771 121.981 22.648 120.153 24.164C121.339 24.4389 122.084 24.6108 122.942 24.8093C121.274 29.8957 117.338 33.9663 117.577 39.6025C119.861 39.2321 121.951 38.8961 124.041 38.5562C124.071 38.3997 124.105 38.2431 124.136 38.0865C122.243 37.6016 122.133 36.4713 122.84 35.0469C124.155 32.3892 125.352 29.6666 126.837 27.1119C127.491 26.0045 128.733 25.2446 129.702 24.3244Z" fill="white"/>
<path d="M74.4025 35.0317C74.7179 36.3147 74.9003 37.6932 75.4323 38.919C75.6755 39.4765 76.6407 40.1066 77.2221 40.0569C79.0308 39.9004 81.6071 36.5095 81.6337 34.3672C80.8472 34.9591 80.1442 35.4861 78.9586 36.3758C78.9586 33.3133 78.9586 30.774 78.9586 28.2308C78.7192 28.1162 78.4836 28.0055 78.2442 27.8909C75.9187 30.4914 73.5894 33.0918 71.2638 35.6923C71.1232 35.5586 70.9826 35.425 70.8458 35.2913C72.1492 30.6288 74.4633 26.6881 78.8408 23.9883C79.9048 26.4857 80.7484 28.9754 83.6819 30.0255C83.5261 27.2876 83.3855 24.8055 83.2411 22.2356C81.6641 22.2356 80.1062 21.9836 78.6584 22.2776C71.6172 23.7172 65.1878 30.0599 65.8566 38.2507C66.0199 40.2555 66.5899 40.7137 68.2543 39.5911C70.3746 38.1629 72.381 36.5438 74.4025 35.0317Z" fill="white"/>
<path d="M39.0743 35.1386C39.3858 36.4102 39.5796 37.7467 40.0736 38.9533C40.294 39.4917 41.1186 40.1104 41.6772 40.118C43.6075 40.1447 46.3473 36.7538 46.1839 34.5925C45.4581 35.1233 44.8007 35.6082 43.7139 36.4063C43.5695 33.4278 43.4479 30.8961 43.3188 28.2613C41.9394 29.6207 40.693 30.8656 39.4314 32.0952C38.2193 33.2789 36.9957 34.4474 35.7759 35.6197C36.8589 30.6899 39.1693 26.7262 43.5125 24.0723C44.5955 26.604 45.3973 29.1816 48.3688 30.1171C48.2054 27.4365 48.0496 24.9239 47.8938 22.3998C39.8532 20.605 29.5631 28.7921 30.4979 38.2316C30.7031 40.3013 31.3301 40.8244 33.0362 39.6598C35.1072 38.2431 37.0679 36.6507 39.0743 35.1386Z" fill="white"/>
<path d="M140.277 32.4618C146.285 31.9195 152.475 26.8332 151.969 23.0528C148.185 22.7855 144.408 22.6328 141.022 24.8437C137.188 27.3487 134.756 30.6632 135.045 35.5205C135.17 37.6589 136.413 39.3505 138.202 39.74C140.403 40.2173 148.432 36.5171 149.834 34.0885C148.96 34.2565 148.344 34.2909 147.79 34.4971C146.144 35.1119 144.544 35.8565 142.884 36.4255C141.28 36.9754 140.486 36.4408 140.292 34.7873C140.209 34.0503 140.277 33.2942 140.277 32.4618Z" fill="white"/>
<path d="M118.295 23.0451C118.112 22.8542 117.934 22.6633 117.751 22.4724C115.289 22.774 112.827 23.0757 110.364 23.3774C110.323 23.6294 110.285 23.8776 110.243 24.1296C110.988 24.3205 111.732 24.5115 112.701 24.7559C112.462 25.3248 112.257 25.9014 111.983 26.4437C110.634 29.09 109.24 31.7133 107.917 34.3749C107.499 35.2111 107.112 36.1123 106.96 37.025C106.637 38.9228 107.366 39.6369 109.262 39.3696C110.687 39.1672 112.097 38.8464 113.507 38.56C113.868 38.4875 114.214 38.3462 114.571 38.2355C111.846 37.0632 111.717 36.815 112.804 34.604C113.53 33.13 114.464 31.7591 115.16 30.2699C116.269 27.8909 117.257 25.4547 118.295 23.0451Z" fill="white"/>
<path d="M116.577 14.1898C115.783 14.9306 114.989 15.7249 114.134 16.4542C112.876 17.5234 113.123 18.5086 114.255 19.4213C116.121 20.922 118.279 20.7349 120.51 20.5974C119.188 18.4437 117.953 16.4313 116.577 14.1898Z" fill="white"/>
<path d="M34.1766 13.514C29.2633 10.7073 24.2968 7.68298 19.1366 5.03288C17.3924 4.13551 15.1429 3.7842 13.1631 3.89112C9.29102 4.10114 7.52026 7.84717 9.46961 11.1999C10.3892 12.7846 11.4076 14.3082 12.3309 15.8929C14.1055 18.9363 12.6007 22.9229 9.8116 24.4275C6.71468 26.0924 2.56899 25.0346 0.821029 22.0676C-0.166946 20.3874 -0.318943 18.5736 0.646233 16.8285C1.51261 15.2552 3.27577 14.5106 5.76851 14.7206C5.36572 15.4576 5.09972 16.0724 4.72353 16.607C3.73936 18.0161 2.88438 19.5473 3.98255 21.132C4.49174 21.8652 5.67731 22.4609 6.56649 22.4762C7.20867 22.4876 8.32964 21.5024 8.42084 20.8456C8.61843 19.4175 8.43224 17.8862 8.15105 16.4466C7.74066 14.354 6.74888 12.3264 6.64248 10.2376C6.39549 5.1818 9.38981 1.63816 14.2879 0.389481C17.5254 -0.435333 20.5919 0.106905 23.4989 1.43195C28.7085 3.81093 33.8498 6.34647 38.9759 8.90492C40.1576 9.4968 41.0012 9.77174 42.354 9.04239C45.6447 7.26675 49.2698 7.16365 52.8303 8.10684C56.0413 8.95838 56.8164 11.9865 54.5213 14.4266C51.9374 17.1722 48.5288 17.9588 44.9987 17.6342C42.43 17.3975 39.9259 16.4581 37.0113 15.7364C31.3191 22.6175 26.2804 30.4112 24.4868 39.9042C23.9739 42.6268 23.8067 45.4373 23.7079 48.2172C23.6205 50.6879 24.4754 52.8721 26.8428 54.0559C29.3051 55.2893 31.6079 54.4835 33.504 52.8836C34.9746 51.6425 36.0993 49.9738 37.3191 48.4502C37.9993 47.5986 38.5731 46.6783 40.1614 47.2511C39.3521 49.802 39.1013 52.727 37.5889 54.6554C36.4565 56.0988 33.7472 56.6869 31.6611 56.9007C21.9219 57.9012 18.4298 51.0888 17.9928 43.2874C17.5672 35.7343 20.2423 29.1969 24.9314 23.4995C27.7814 20.0437 31.0113 16.9087 34.1766 13.514ZM43.3078 10.9975C45.9981 12.7502 48.6922 13.6591 51.6334 13.3268C52.4731 13.2314 53.2217 12.3187 54.0083 11.7841C53.3737 11.177 52.8455 10.2987 52.0932 10.0123C49.1786 8.90874 46.3287 9.31351 43.3078 10.9975Z" fill="black"/>
<path d="M60.727 9.93214C59.8036 9.56555 59.2108 9.3288 58.1127 8.89348C60.708 7.68299 62.9347 7.42715 65.1311 7.77464C66.3015 7.95793 66.4687 9.19515 65.9747 10.2567C64.9259 12.4906 63.8125 14.6901 62.7409 16.9087C61.8746 18.7034 61.031 20.5096 60.1912 22.2814C63.3983 20.334 66.5523 18.4247 69.7556 16.481C71.0475 22.438 67.335 26.5506 58.3179 29.1205C61.3388 31.3773 61.8632 34.6384 62.6308 37.9185C64.3255 45.1548 68.9424 46.3194 74.893 45.3915C76.2002 45.1853 77.591 43.9939 78.4726 42.8827C79.9051 41.0765 80.8893 40.5457 83.9558 41.3782C82.9944 42.5619 82.3599 43.887 81.3111 44.5438C75.995 47.8736 70.2648 48.6946 64.3445 46.4416C60.1646 44.8531 58.8194 41.1872 58.2647 37.0899C57.9721 34.9286 57.5693 32.7902 55.9657 30.5792C55.0423 33.531 52.4014 35.5434 54.0506 38.8426C52.2114 39.0374 50.4293 39.2283 48.5369 39.4307C48.2405 37.3114 48.3621 35.4288 49.3311 33.5081C52.9144 26.3902 56.3685 19.2075 59.8606 12.0438C60.176 11.3832 60.4154 10.6882 60.727 9.93214ZM57.7707 26.7835C62.0988 25.8174 63.8809 24.2709 64.3787 21.2466C62.2584 23.0222 60.2292 24.7215 57.7707 26.7835Z" fill="black"/>
<path d="M90.7762 39.3696C90.647 33.8976 94.5153 30.0981 95.7617 25.3516C92.4443 28.6508 90.1264 32.6069 88.7964 37.0326C88.3746 38.434 88.1238 39.1405 86.6305 39.1328C85.8439 39.129 85.0573 39.3887 84.2403 39.5338C83.7958 36.9448 84.4645 34.7376 85.7033 32.5725C87.1207 30.0942 88.3252 27.4938 89.6818 24.8361C88.2188 24.4733 87.2651 24.2365 86.3075 23.9998C86.2923 23.8165 86.2733 23.6332 86.2581 23.4499C88.7736 22.4074 91.5666 22.7931 94.3025 22.1516C94.3519 22.8657 94.3899 23.4041 94.4317 23.9654C95.5185 23.3697 96.495 22.5831 97.6008 22.2814C100.006 21.6246 100.603 22.2012 100.599 24.584C101.712 23.9311 102.833 23.0681 104.102 22.6022C104.95 22.2891 106.371 22.1669 106.854 22.648C107.355 23.1482 107.344 24.5955 107.032 25.4279C105.995 28.204 104.714 30.8923 103.536 33.615C103.092 34.646 102.67 35.6847 102.218 36.7691C103.023 37.109 103.662 37.3839 104.304 37.655C104.308 37.8536 104.308 38.0522 104.311 38.2546C102.233 38.6555 100.154 39.0565 97.901 39.4956C97.1144 34.1038 100.599 30.2775 102.221 25.8213C99.079 28.8608 96.5558 32.3701 95.6819 36.6889C95.3437 38.3615 94.5761 38.7128 93.3411 38.9877C92.6153 39.1367 91.8706 39.2054 90.7762 39.3696Z" fill="black"/>
<path d="M129.703 24.3244C128.734 25.2446 127.491 26.0045 126.845 27.1119C125.36 29.6666 124.159 32.3892 122.848 35.0469C122.145 36.4713 122.255 37.6054 124.144 38.0865C124.113 38.2431 124.079 38.3997 124.049 38.5562C121.959 38.8961 119.865 39.2321 117.585 39.6025C117.342 33.9663 121.282 29.8957 122.95 24.8093C122.092 24.6107 121.347 24.4389 120.161 24.164C121.989 22.648 123.881 22.8771 125.614 22.5334C126.963 22.2661 127.716 22.5182 127.552 23.679C129.334 23.1941 131.147 22.606 133.001 22.2203C134.601 21.8881 135.331 22.9802 135.11 24.3396C134.852 25.9282 134.316 27.5129 133.636 28.9754C132.674 31.0374 131.443 32.9658 130.391 34.9897C130.026 35.6923 129.859 36.4942 129.596 37.2541C130.311 37.6016 130.839 37.8574 131.895 38.3729C130.888 38.6593 130.402 38.8655 129.9 38.9228C129.148 39.0068 128.384 38.9763 127.628 39.0144C124.436 39.1748 124.185 38.9915 125.394 35.8794C126.625 32.7061 128.221 29.678 129.623 26.5735C129.893 25.9778 130.007 25.3134 130.193 24.6833C130.026 24.5649 129.866 24.4465 129.703 24.3244Z" fill="black"/>
<path d="M74.4024 35.0317C72.3808 36.5438 70.3783 38.1629 68.2503 39.5949C66.5822 40.7175 66.016 40.2593 65.8526 38.2546C65.1838 30.0599 71.6133 23.7172 78.6545 22.2814C80.1022 21.9836 81.664 22.2394 83.2372 22.2394C83.3816 24.8055 83.5222 27.2914 83.678 30.0293C80.7444 28.9754 79.9008 26.4857 78.8369 23.9921C74.4594 26.6957 72.1414 30.6327 70.8419 35.2951C70.9825 35.4288 71.1231 35.5625 71.2599 35.6961C73.5854 33.0956 75.9147 30.4952 78.2403 27.8947C78.4797 28.0093 78.7153 28.12 78.9547 28.2346C78.9547 30.7778 78.9547 33.3171 78.9547 36.3796C80.1402 35.4899 80.8394 34.9629 81.6298 34.3711C81.6032 36.5133 79.0269 39.9004 77.2181 40.0607C76.6367 40.1104 75.6716 39.4803 75.4284 38.9228C74.8964 37.6932 74.7178 36.3147 74.4024 35.0317Z" fill="black"/>
<path d="M39.0751 35.1386C37.0688 36.6508 35.1118 38.2431 33.0333 39.6598C31.3271 40.8245 30.7001 40.3013 30.4949 38.2317C29.5601 28.7921 39.8541 20.6089 47.8909 22.3998C48.0467 24.9239 48.2025 27.4365 48.3659 30.1172C45.3943 29.1816 44.5888 26.6041 43.5096 24.0723C39.1663 26.7263 36.856 30.6899 35.773 35.6197C36.9928 34.4436 38.2163 33.2751 39.4285 32.0952C40.6901 30.8656 41.9364 29.6207 43.3158 28.2613C43.4412 30.8923 43.5666 33.4279 43.711 36.4064C44.7978 35.6083 45.4589 35.1233 46.1809 34.5925C46.3443 36.7577 43.6046 40.1486 41.6742 40.118C41.1157 40.1104 40.2911 39.4918 40.0707 38.9534C39.5767 37.7467 39.3867 36.4102 39.0751 35.1386Z" fill="black"/>
<path d="M140.277 32.4618C140.277 33.2942 140.205 34.0503 140.292 34.7911C140.482 36.4445 141.28 36.9791 142.884 36.4293C144.544 35.8603 146.14 35.1157 147.79 34.5009C148.344 34.2947 148.96 34.2603 149.834 34.0923C148.432 36.5171 140.403 40.2173 138.202 39.7438C136.413 39.3581 135.174 37.6627 135.045 35.5243C134.756 30.667 137.188 27.3525 141.022 24.8475C144.404 22.6365 148.181 22.7893 151.969 23.0566C152.475 26.8332 146.285 31.9195 140.277 32.4618ZM141.064 29.762C143.629 29.7735 146.011 27.6618 146.642 24.7788C143.967 25.6189 142.135 27.1921 141.064 29.762Z" fill="black"/>
<path d="M118.295 23.0451C117.254 25.4547 116.266 27.8909 115.157 30.2699C114.461 31.7553 113.527 33.1262 112.801 34.604C111.714 36.815 111.843 37.0632 114.568 38.2355C114.214 38.3462 113.865 38.4875 113.504 38.56C112.09 38.8464 110.684 39.1672 109.259 39.3696C107.363 39.6369 106.637 38.919 106.956 37.025C107.112 36.1123 107.5 35.215 107.914 34.3749C109.236 31.7171 110.631 29.09 111.98 26.4437C112.254 25.9053 112.459 25.3287 112.698 24.7559C111.733 24.5077 110.984 24.3167 110.24 24.1296C110.281 23.8776 110.319 23.6294 110.361 23.3774C112.824 23.0757 115.286 22.774 117.748 22.4724C117.934 22.6633 118.117 22.8542 118.295 23.0451Z" fill="black"/>
<path d="M116.577 14.1898C117.953 16.4313 119.188 18.4399 120.51 20.5936C118.279 20.7311 116.117 20.9182 114.255 19.4175C113.123 18.5048 112.876 17.5196 114.134 16.4504C114.985 15.7287 115.783 14.9306 116.577 14.1898Z" fill="black"/>
<path d="M43.3076 10.9975C46.3285 9.3135 49.1785 8.90873 52.093 10.0123C52.8454 10.2987 53.3774 11.177 54.0081 11.7841C53.2178 12.3225 52.4692 13.2352 51.6332 13.3268C48.6883 13.6552 45.9979 12.7464 43.3076 10.9975Z" fill="white"/>
<path d="M57.7705 26.7835C60.229 24.7215 62.2582 23.0222 64.3785 21.2466C63.8808 24.2709 62.0986 25.8174 57.7705 26.7835Z" fill="white"/>
<path d="M141.064 29.762C142.14 27.1921 143.968 25.615 146.643 24.7787C146.008 27.6656 143.629 29.7773 141.064 29.762Z" fill="white"/>
</svg>
