<svg width="100" height="59" viewBox="0 0 100 59" fill="none" xmlns="http://www.w3.org/2000/svg">
<g opacity="0.4" clip-path="url(#clip0_2_247)">
<path d="M99.9329 55.5117C99.8142 55.5195 99.6749 55.4936 99.5717 55.5428C97.2597 56.6874 95.9695 56.5269 94.7877 54.2324C93.642 52.0079 93.0098 49.5141 92.197 47.1239C92.1066 46.8571 92.2563 46.4428 92.4111 46.1631C94.6664 42.1232 95.9333 37.739 96.8133 33.2356C97.559 29.4236 98.1705 25.5806 97.5874 21.678C97.43 20.624 97.288 19.2048 96.0933 19.0702C95.1308 18.9614 93.9981 19.5829 93.0872 20.1268C92.4679 20.4971 92.0163 21.2455 91.637 21.9084C91.0616 22.9132 90.5145 23.9543 90.1249 25.0419C87.5936 32.0884 87.4645 39.3212 88.7341 46.6033C88.987 48.0613 88.1277 48.5456 87.3097 49.1671C86.4685 49.8067 85.506 50.0035 84.5565 49.3354C82.985 48.2296 81.86 43.7987 82.5463 41.9808C83.7178 38.881 84.8971 35.776 85.857 32.6089C86.5846 30.2109 86.8762 27.7015 86.226 25.2025C85.9318 24.0708 85.3589 23.1023 84.0868 22.8614C82.8018 22.6206 81.7309 23.1463 81.0884 24.1951C80.4459 25.2439 79.8627 26.4015 79.5866 27.5901C78.3532 32.9429 78.3481 38.3657 79.0551 43.7832C79.2512 45.2852 78.5906 46.2563 77.672 47.1886C76.965 47.9059 76.1754 47.8153 75.8038 46.9037C75.3729 45.8446 74.9136 44.6766 74.9394 43.5683C75.0194 40.3519 75.3239 37.1408 75.5664 33.9296C75.68 32.4302 75.8915 30.9385 75.9741 29.4366C76.0283 28.4499 75.3987 28.0718 74.4698 28.121C73.2131 28.1883 72.4829 28.8435 72.3048 30.0917C71.8791 33.0802 71.5797 36.0919 71.0017 39.0493C70.5914 41.1418 69.8922 43.1902 69.1335 45.1868C68.9374 45.7047 68.0162 46.2563 67.4563 46.2252C67.0408 46.2019 66.4009 45.2956 66.3416 44.731C66.1738 43.1565 66.0913 41.538 66.2745 39.9712C66.6048 37.1485 67.1595 34.3517 67.6059 31.5419C67.8253 30.1642 66.788 29.2216 65.5133 29.7732C64.9352 30.0244 64.3727 30.7003 64.1586 31.3089C63.8076 32.3111 63.5935 33.4168 63.5909 34.4786C63.5831 36.9206 62.0994 38.4641 60.466 40.2224C60.3757 39.2979 60.3628 38.5677 60.2261 37.8581C59.8622 35.9599 59.6042 34.0202 59.0107 32.1945C58.4017 30.3196 57.1193 29.6541 55.2666 30.2238C53.9067 30.6407 52.4875 31.2674 51.4295 32.1893C48.137 35.0613 46.5036 38.8447 46.0288 43.1695C45.9824 43.5838 45.6082 43.9593 45.3863 44.3529C44.8831 44.0577 44.0987 43.8713 43.9361 43.444C43.6239 42.6308 43.4949 41.6597 43.5981 40.7922C43.8407 38.7878 44.2303 36.7989 44.6354 34.8204C44.7876 34.0746 44.8754 33.4272 44.0935 33.0465C43.2575 32.6399 42.5763 32.9429 42.1066 33.6862C41.8821 34.0435 41.7247 34.4579 41.6112 34.8696C41.3222 35.9055 41.1725 36.9931 40.7881 37.9928C39.9262 40.2302 39.0566 42.4754 37.9677 44.6041C37.6658 45.192 36.5537 45.728 35.8699 45.6659C34.8325 45.5701 34.688 44.4591 34.639 43.5217C34.4765 40.5125 35.4415 37.8218 37.0749 35.3668C38.7599 32.8342 41.0358 31.2105 44.1916 31.0913C44.4909 31.081 44.7825 30.9152 45.0792 30.822C45.0947 30.7132 45.1102 30.6019 45.1257 30.4931C44.6561 30.2626 44.2071 29.9493 43.7116 29.8121C41.4151 29.175 39.3276 29.7706 37.5497 31.2312C33.5114 34.5459 31.4368 38.9147 30.9826 44.0991C30.9388 44.5938 30.9646 45.2723 30.6678 45.5338C29.5815 46.492 28.4513 47.4605 27.1869 48.1416C25.7909 48.8926 24.5394 48.3643 23.9433 46.8571C23.5227 45.7954 23.4221 44.6093 23.1718 43.4776C22.9783 42.6049 23.2854 42.0999 24.0956 41.6338C26.6424 40.1706 29.0422 38.4951 30.802 36.0686C31.9864 34.4346 32.6212 32.6451 32.2547 30.6019C31.718 27.6083 28.9054 26.1244 26.3354 27.7274C24.9729 28.5768 23.773 29.9079 22.8906 31.2752C21.012 34.1834 20.2405 37.5163 19.8793 40.9475C19.8328 41.3826 19.7451 41.9808 19.4535 42.1958C18.4652 42.9234 17.3763 43.5139 16.4628 44.0732C14.2747 41.942 12.1484 39.9946 10.1641 37.9047C8.33463 35.978 6.4845 34.0254 4.96208 31.8579C3.32612 29.5246 3.55319 26.9453 5.10658 24.5654C6.66771 22.17 9.60676 21.2041 12.3807 22.0819C14.7082 22.82 16.1816 25.0134 16.1454 27.6575C16.1196 29.4158 15.1107 30.7132 14.1844 32.0676C13.965 32.3862 13.9341 32.8368 13.8154 33.2278C14.254 33.3055 14.6875 33.4143 15.1288 33.4479C15.3275 33.4635 15.5442 33.3521 15.7377 33.2615C18.1169 32.1376 19.7167 30.3895 19.9541 27.673C20.1837 25.0497 19.0355 23.0582 16.8344 21.7168C13.7638 19.8445 10.4402 19.57 7.0109 20.4453C0.547049 22.0949 -1.91205 27.8646 1.61016 33.5386C3.00357 35.7812 4.88467 37.739 6.68577 39.6942C8.73975 41.9264 10.9511 44.0137 13.1445 46.2123C11.4104 47.5253 9.79771 48.6077 8.35011 49.8818C6.80963 51.2414 5.25882 52.6528 4.01508 54.2739C2.34557 56.4466 3.0913 58.1998 5.79812 58.5753C10.2002 59.1864 14.1611 57.9745 17.4976 55.0223C18.9606 53.7275 19.6806 51.9743 19.2032 49.9984C18.8548 48.5559 18.2459 47.1782 17.7143 45.6555C18.2665 45.2956 18.9323 44.8605 19.6393 44.3995C19.9979 45.7928 20.2276 47.1083 20.6766 48.3436C21.5436 50.7235 23.337 52.1193 25.5251 51.8085C26.7637 51.6324 27.9842 50.8918 29.0706 50.1848C30.0124 49.5737 30.753 48.6543 31.5813 47.8723C33.1553 49.6617 34.8764 50.2159 36.7033 49.25C37.6968 48.7243 38.6051 47.9137 39.3456 47.0539C40.1894 46.0725 40.801 44.8942 41.3815 44.0033C41.9002 44.8864 42.2434 46.2253 43.0588 46.6474C43.8923 47.0798 45.1876 46.6163 46.4572 46.536C47.5125 48.1416 48.5473 48.6776 50.4438 47.9629C51.5663 47.5408 52.7842 46.8675 53.4861 45.943C54.6937 44.3555 55.5323 42.4858 56.5232 40.7326C56.6677 40.4762 56.7813 40.2043 57.0522 39.6501C57.158 40.6057 57.1967 41.2091 57.2999 41.8021C57.5296 43.1203 57.2173 44.1768 56.2342 45.1764C55.1246 46.3055 54.0822 47.5615 53.2797 48.9211C52.2656 50.6458 51.3212 52.4663 50.7199 54.3645C50.1239 56.255 50.7999 57.7311 52.0488 58.4717C53.3932 59.2693 55.5323 59.2072 56.7322 57.9434C57.8237 56.791 58.7759 55.3797 59.3694 53.9087C60.5641 50.9436 60.7267 47.7428 60.4557 44.6015C60.2648 42.377 61.7665 41.5017 62.8426 40.2846C63.2503 42.4728 63.4309 44.6482 64.0889 46.6655C64.9094 49.1749 67.5698 49.7886 69.6135 48.0924C70.3231 47.5045 70.8572 46.681 71.3836 45.9041C71.7423 45.3758 71.9461 44.744 72.2068 44.1924C72.7461 45.728 73.1176 47.3 73.8272 48.6984C74.9291 50.8659 76.8076 51.0653 78.5674 49.3743C79.0164 48.9418 79.4215 48.4627 79.8756 47.9733C80.7685 50.0812 81.4032 52.3161 83.7849 52.9506C86.2905 53.6161 87.7639 51.6583 89.4747 50.1771C89.6475 50.6924 89.7301 51.1171 89.9236 51.4796C90.9326 53.3623 91.7944 55.3615 93.0511 57.0629C94.3051 58.7617 96.5243 59.088 98.3021 58.2904C99.5923 57.7078 100.217 56.6615 99.9329 55.5117Z" fill="white"/>
<path d="M22.6992 12.8291C22.7611 12.9845 22.8231 13.1425 22.885 13.2978C23.8346 13.0596 24.8203 12.9146 25.7286 12.565C28.9618 11.3116 32.2853 10.5424 35.7508 10.3223C38.9737 10.1177 43.6287 12.754 45.2182 15.8202C43.5332 17.0684 41.7295 17.7624 39.5749 17.2652C39.1414 17.1642 38.6434 17.3403 38.1763 17.3869C38.3982 17.8116 38.5221 18.3502 38.8575 18.6429C40.8444 20.3753 43.1797 20.8363 45.7239 20.3495C48.8823 19.7461 51.7388 18.371 54.5643 16.8871C55.5165 16.3873 56.6364 16.2034 57.6788 15.8771C57.7253 16.0196 57.7717 16.162 57.8182 16.3018C57.6376 16.3873 57.4182 16.4339 57.2815 16.566C57.0389 16.799 56.848 17.0865 56.6338 17.3506C56.9615 17.4931 57.3047 17.7857 57.6169 17.7546C60.6488 17.4542 63.0951 18.5263 65.3168 20.5851C67.701 22.7941 70.4491 24.5033 73.6875 25.2206C74.0436 25.3009 74.4642 25.1015 74.8538 25.0289C74.7403 24.6845 74.7093 24.2676 74.4952 24.0034C72.5444 21.5977 70.5678 19.2126 68.5861 16.8301C67.621 15.6674 66.3257 15.1287 64.86 15.0329C62.5893 14.8827 60.3134 14.8231 58.0452 14.6444C57.4492 14.5978 56.8712 14.2664 56.288 14.054C55.3565 13.7148 54.4224 13.0674 53.4986 13.0829C51.4859 13.1166 49.7906 12.5106 48.2398 11.3219C47.3857 10.6667 46.5316 10.0142 45.7033 9.3279C43.817 7.76116 41.7682 6.89363 39.2885 7.72749C39.0898 7.79482 38.8627 7.76893 38.6485 7.80259C33.5368 8.57431 28.4947 9.59722 23.8604 12.047C23.4501 12.2542 23.0863 12.5624 22.6992 12.8291Z" fill="white"/>
<path d="M49.9764 0.00778604C46.3691 -0.113928 42.4882 1.28966 39.0666 4.00621C38.5376 4.42573 38.0603 4.95143 37.6809 5.51079C37.5261 5.74127 37.699 6.19187 37.7222 6.54147C38.0267 6.47932 38.3905 6.50263 38.6228 6.33689C39.3943 5.79306 40.1039 5.16119 40.86 4.59924C47.4993 -0.334048 58.9923 0.126909 64.2975 9.26579C65.0407 10.5451 65.389 12.0522 65.967 13.4325C66.0935 13.7355 66.4289 13.9479 66.6663 14.2017C66.8495 13.8728 67.2056 13.5309 67.185 13.2124C67.1334 12.4485 66.9734 11.6767 66.7411 10.9439C64.6278 4.33509 58.3162 0.0259136 49.9764 0.00778604Z" fill="white"/>
<path d="M32.3682 17.3972C32.5617 20.8855 33.8029 23.9516 35.2917 26.9272C35.5033 27.3493 36.391 27.8387 36.7367 27.7041C37.6812 27.3363 37.0283 26.619 36.7393 26.1192C35.4698 23.9128 34.7215 21.5329 34.6673 19.0106C34.6234 16.9674 34.915 14.9164 34.995 12.8679C35.0105 12.4536 34.755 12.0289 34.6234 11.6094C34.306 11.8891 33.8054 12.1144 33.6996 12.4614C33.1965 14.0877 32.8017 15.7502 32.3682 17.3972Z" fill="white"/>
<path d="M67.2809 23.0039C66.8474 22.8174 66.5197 22.5429 66.2488 22.5921C65.9004 22.6543 65.4772 22.9003 65.2966 23.1981C64.5664 24.4023 63.8955 25.6479 63.2478 26.9013C63.0749 27.2328 63.0594 27.6445 62.9717 28.02C63.4413 27.9967 64.1767 28.1521 64.3341 27.919C65.3018 26.4792 66.1378 24.9513 67.2809 23.0039Z" fill="white"/>
<path d="M99.9326 55.5117C100.216 56.6589 99.592 57.7077 98.2967 58.2878C96.5213 59.0854 94.2996 58.7591 93.0456 57.0603C91.7889 55.3589 90.9271 53.3571 89.9182 51.477C89.7246 51.1145 89.6421 50.6924 89.4692 50.1745C87.7584 51.6557 86.285 53.6161 83.7794 52.948C81.3952 52.3135 80.763 50.0786 79.8702 47.9707C79.416 48.4601 79.0109 48.9392 78.5619 49.3717C76.8047 51.0653 74.9236 50.8633 73.8218 48.6958C73.1122 47.2973 72.7406 45.7254 72.2013 44.1898C71.9432 44.7414 71.7368 45.3732 71.3781 45.9015C70.8517 46.6784 70.315 47.5019 69.608 48.0898C67.5643 49.786 64.904 49.1723 64.0834 46.6629C63.4228 44.6455 63.2448 42.4677 62.8371 40.282C61.7611 41.4991 60.2567 42.3744 60.4502 44.5989C60.7212 47.7402 60.556 50.941 59.3639 53.9061C58.773 55.3745 57.8183 56.7884 56.7268 57.9408C55.5269 59.2072 53.3877 59.2667 52.0434 58.4691C50.7945 57.7285 50.1184 56.2524 50.7145 54.3619C51.3131 52.4637 52.2575 50.6432 53.2742 48.9185C54.0767 47.5589 55.1192 46.3029 56.2287 45.1738C57.2119 44.1742 57.5241 43.1177 57.2944 41.7995C57.1912 41.2091 57.1551 40.6057 57.0467 39.6475C56.7784 40.2017 56.6622 40.4762 56.5177 40.73C55.5295 42.4832 54.6883 44.3529 53.4806 45.9404C52.7788 46.8623 51.5608 47.5382 50.4384 47.9603C48.5418 48.675 47.5096 48.139 46.4517 46.5334C45.1821 46.6163 43.8868 47.0772 43.0533 46.6448C42.2379 46.2226 41.8947 44.8838 41.3761 44.0007C40.7955 44.8916 40.1839 46.0724 39.3402 47.0513C38.5996 47.9111 37.6939 48.7242 36.6979 49.2474C34.8709 50.2133 33.1498 49.6591 31.5758 47.8697C30.7501 48.6492 30.0069 49.5711 29.0651 50.1822C27.9788 50.8892 26.7582 51.6298 25.5197 51.8059C23.3341 52.1167 21.5407 50.7209 20.6711 48.341C20.2196 47.1057 19.9925 45.7902 19.6338 44.3969C18.9268 44.8579 18.2611 45.293 17.7089 45.6529C18.2404 47.173 18.8494 48.5533 19.1977 49.9958C19.6751 51.9717 18.9552 53.7249 17.4921 55.0197C14.1557 57.9719 10.1948 59.1838 5.79267 58.5727C3.08585 58.1972 2.34012 56.444 4.00963 54.2713C5.25595 52.6502 6.80418 51.2388 8.34466 49.8792C9.78967 48.6051 11.405 47.5227 13.139 46.2097C10.9457 44.0111 8.7343 41.9238 6.68032 39.6915C4.87921 37.7338 2.99554 35.776 1.60471 33.5359C-1.91234 27.8646 0.546758 22.0949 7.01061 20.4427C10.4399 19.5674 13.7635 19.8419 16.8341 21.7142C19.0352 23.0556 20.1834 25.0471 19.9538 27.6704C19.7164 30.3869 18.1166 32.1375 15.7374 33.2589C15.5465 33.3495 15.3272 33.4608 15.1285 33.4453C14.6872 33.4116 14.2511 33.3029 13.8151 33.2252C13.9338 32.8342 13.9647 32.3861 14.1841 32.065C15.113 30.7132 16.1193 29.4132 16.1451 27.6549C16.1813 25.0134 14.7079 22.82 12.3726 22.0819C9.60131 21.204 6.66225 22.1726 5.09855 24.5654C3.54516 26.9453 3.31808 29.5246 4.95404 31.8579C6.47389 34.0254 8.32402 35.978 10.1561 37.9047C12.1378 39.9919 14.2666 41.942 16.4548 44.0732C17.3708 43.5139 18.4572 42.9234 19.4454 42.1957C19.737 41.9808 19.8248 41.3852 19.8712 40.9475C20.2325 37.5188 21.0066 34.186 22.8825 31.2752C23.765 29.9078 24.9649 28.5768 26.3273 27.7274C28.8974 26.1244 31.7126 27.6056 32.2467 30.6019C32.6131 32.6451 31.9783 34.4346 30.794 36.0686C29.0316 38.4977 26.6318 40.1732 24.0875 41.6338C23.2773 42.0999 22.9728 42.6049 23.1638 43.4776C23.4141 44.6067 23.5147 45.7954 23.9353 46.8571C24.5314 48.3643 25.7854 48.89 27.1788 48.1416C28.4432 47.4605 29.5734 46.492 30.6598 45.5338C30.9565 45.2722 30.9307 44.5938 30.9746 44.0991C31.4287 38.9147 33.5033 34.5459 37.5416 31.2312C39.3195 29.7706 41.407 29.1724 43.7036 29.812C44.199 29.9493 44.648 30.26 45.1176 30.4931C45.1021 30.6019 45.0867 30.7132 45.0712 30.822C44.7744 30.9152 44.4829 31.0784 44.1835 31.0913C41.0277 31.213 38.7518 32.8342 37.0668 35.3668C35.4335 37.8218 34.4684 40.5125 34.631 43.5216C34.68 44.4565 34.8245 45.5701 35.8618 45.6659C36.5456 45.728 37.6603 45.192 37.9597 44.6041C39.0486 42.4754 39.9182 40.2302 40.78 37.9927C41.1645 36.9957 41.3142 35.9081 41.6032 34.8696C41.7167 34.4605 41.8741 34.0435 42.0986 33.6861C42.5682 32.9429 43.2494 32.6373 44.0855 33.0465C44.8699 33.4272 44.7796 34.0772 44.6274 34.8204C44.2222 36.7989 43.83 38.7878 43.59 40.7922C43.4842 41.6597 43.6159 42.6308 43.9281 43.444C44.0906 43.8712 44.8751 44.0577 45.3783 44.3529C45.6002 43.9593 45.9769 43.5838 46.0208 43.1694C46.4956 38.8421 48.1289 35.0587 51.4215 32.1893C52.4795 31.2674 53.8987 30.6407 55.2585 30.2238C57.1138 29.6541 58.3937 30.317 59.0026 32.1945C59.5961 34.0202 59.8542 35.9599 60.218 37.8581C60.3522 38.5651 60.3677 39.2953 60.458 40.2224C62.0939 38.4641 63.5777 36.9232 63.5828 34.4786C63.5854 33.4168 63.7996 32.311 64.1505 31.3089C64.3647 30.7003 64.9272 30.0244 65.5052 29.7732C66.7799 29.2216 67.8172 30.1642 67.5979 31.5419C67.1515 34.3517 66.5967 37.1485 66.2664 39.9712C66.0832 41.538 66.1658 43.1565 66.3335 44.731C66.3929 45.2956 67.0328 46.2045 67.4482 46.2252C68.0056 46.2563 68.9268 45.7047 69.1255 45.1868C69.8841 43.1902 70.5834 41.1418 70.9937 39.0493C71.5717 36.0919 71.871 33.0776 72.2968 30.0917C72.4748 28.8435 73.2051 28.1883 74.4617 28.121C75.3906 28.0718 76.0202 28.4499 75.9661 29.4365C75.8861 30.9359 75.6719 32.4302 75.5584 33.9296C75.3184 37.1407 75.0113 40.3519 74.9313 43.5683C74.9029 44.6766 75.3622 45.8446 75.7957 46.9037C76.1673 47.8153 76.9569 47.9059 77.6639 47.1886C78.58 46.2589 79.2431 45.2852 79.047 43.7832C78.34 38.3656 78.3452 32.9429 79.5786 27.5901C79.8521 26.4015 80.4379 25.2439 81.0804 24.1951C81.7229 23.1463 82.7937 22.618 84.0788 22.8614C85.3509 23.1022 85.9212 24.0708 86.2179 25.2025C86.8707 27.7015 86.5766 30.2134 85.8489 32.6089C84.889 35.776 83.7098 38.8836 82.5383 41.9808C81.8519 43.7961 82.9769 48.227 84.5484 49.3354C85.498 50.0035 86.4604 49.8067 87.3017 49.1671C88.1196 48.5456 88.9789 48.0613 88.726 46.6033C87.4565 39.3186 87.5855 32.0883 90.1168 25.0419C90.5065 23.9542 91.0535 22.9132 91.629 21.9084C92.0083 21.2455 92.4598 20.4971 93.0791 20.1267C93.99 19.5829 95.1254 18.964 96.0853 19.0702C97.28 19.2048 97.4219 20.624 97.5793 21.6779C98.1625 25.5805 97.5509 29.4236 96.8052 33.2355C95.9253 37.7364 94.6609 42.1232 92.4031 46.1631C92.2482 46.4428 92.0986 46.8545 92.1889 47.1238C92.9991 49.5141 93.6313 52.0079 94.7796 54.2324C95.964 56.5269 97.2516 56.6874 99.5636 55.5428C99.672 55.4936 99.8139 55.5221 99.9326 55.5117ZM91.8199 43.4854C94.6635 36.1489 96.3072 28.9238 95.8582 21.0331C92.723 23.1256 90.1994 37.7545 91.8199 43.4854ZM56.4894 34.4242C56.3629 34.0668 56.301 33.1294 55.8778 32.9144C55.4469 32.6969 54.6366 33.1423 54.0328 33.3961C53.6948 33.5385 53.4006 33.8467 53.1503 34.1367C50.8151 36.8403 49.6385 40.0282 49.4372 43.5605C49.4036 44.1302 49.8191 45.0366 50.2655 45.2308C50.6887 45.4121 51.6176 45.0314 51.9918 44.6041C54.4638 41.784 55.9397 38.4822 56.4894 34.4242ZM14.2228 48.0665C13.4693 48.631 12.7339 49.0816 12.1146 49.6591C10.7393 50.9384 9.36907 52.2306 8.11501 53.6239C7.75376 54.0253 7.48023 55.043 7.71247 55.3227C8.0634 55.7448 8.95621 56.04 9.50325 55.9079C10.8063 55.5946 12.1843 55.2087 13.2783 54.4759C15.5904 52.9247 15.8794 50.6147 14.2228 48.0665ZM23.2696 39.9971C25.8448 38.2491 28.0846 36.6876 29.3025 34.0824C30.0198 32.5441 29.865 31.0369 29.0058 30.5423C28.0923 30.0166 26.8047 30.5889 25.819 32.0469C24.2682 34.3387 23.6773 36.9517 23.2696 39.9971ZM81.7203 38.4304C81.8777 38.4615 82.0377 38.4951 82.1951 38.5262C82.8789 35.934 83.6478 33.3573 84.2155 30.7391C84.5226 29.3278 84.5742 27.8387 84.5561 26.3885C84.551 25.868 84.0039 25.3527 83.7046 24.8347C83.3305 25.2568 82.7602 25.6194 82.6105 26.1114C81.3719 30.1513 81.6403 34.2999 81.7203 38.4304ZM57.4054 46.0258C55.114 48.4472 53.6896 50.9047 53.0394 53.7741C52.8665 54.5432 52.673 55.6567 53.6871 55.8432C54.2754 55.952 55.0289 55.2295 55.6843 54.8384C55.8468 54.7426 55.9372 54.494 56.0249 54.3024C57.1783 51.7878 57.3848 49.1153 57.4054 46.0258Z" fill="black"/>
<path d="M22.6992 12.8291C23.0863 12.5624 23.4501 12.2568 23.8604 12.0393C28.4922 9.58946 33.5342 8.56913 38.6485 7.79483C38.8601 7.76375 39.0872 7.78706 39.2885 7.71973C41.7682 6.88845 43.817 7.75339 45.7033 9.32013C46.5316 10.0064 47.3857 10.659 48.2398 11.3142C49.7906 12.5054 51.4859 13.1088 53.4986 13.0751C54.4224 13.0596 55.3565 13.707 56.288 14.0462C56.8712 14.2586 57.4466 14.5901 58.0452 14.6367C60.3134 14.8154 62.5893 14.8749 64.86 15.0251C66.3257 15.1209 67.621 15.6596 68.5861 16.8223C70.5652 19.2048 72.5444 21.5899 74.4952 23.9957C74.7093 24.2598 74.7377 24.6742 74.8538 25.0212C74.4642 25.0911 74.0462 25.2905 73.6875 25.2128C70.4491 24.4955 67.701 22.7889 65.3168 20.5773C63.0951 18.5186 60.6488 17.449 57.6169 17.7469C57.3047 17.7779 56.9615 17.4853 56.6338 17.3429C56.848 17.0787 57.0389 16.7939 57.2815 16.5582C57.4182 16.4261 57.6376 16.3795 57.8182 16.2941C57.7717 16.1516 57.7253 16.0092 57.6788 15.8694C56.6364 16.1982 55.5165 16.3795 54.5643 16.8793C51.7388 18.3632 48.8849 19.7383 45.7239 20.3417C43.1797 20.8285 40.8444 20.3676 38.8575 18.6351C38.5221 18.3425 38.3982 17.8038 38.1763 17.3791C38.6434 17.3325 39.1414 17.1564 39.5749 17.2574C41.7295 17.7546 43.5306 17.0632 45.2182 15.8124C43.6287 12.7488 38.9737 10.1126 35.7508 10.3146C32.2879 10.5347 28.9618 11.3038 25.7286 12.5572C24.8229 12.9094 23.8346 13.0518 22.885 13.2901C22.8231 13.1399 22.7611 12.9845 22.6992 12.8291Z" fill="black"/>
<path d="M49.9764 0.00778571C58.3162 0.0259133 64.6278 4.33509 66.7412 10.9491C66.976 11.6793 67.1334 12.4536 67.185 13.2176C67.2056 13.5335 66.8521 13.8754 66.6663 14.2068C66.4264 13.9531 66.0935 13.7381 65.9671 13.4377C65.389 12.0574 65.0407 10.5503 64.2975 9.27096C58.9923 0.1295 47.4993 -0.331458 40.86 4.60441C40.1013 5.16896 39.3917 5.79824 38.6228 6.34207C38.3905 6.50522 38.0267 6.48191 37.7222 6.54665C37.699 6.19705 37.5261 5.74386 37.6809 5.51597C38.0603 4.95661 38.535 4.43091 39.0666 4.01138C42.4882 1.28966 46.3691 -0.113928 49.9764 0.00778571Z" fill="black"/>
<path d="M32.3682 17.3973C32.8017 15.7477 33.1965 14.0877 33.6996 12.4588C33.8054 12.1118 34.306 11.8865 34.6234 11.6068C34.755 12.0263 35.0105 12.451 34.995 12.8654C34.9124 14.9138 34.6234 16.9648 34.6673 19.008C34.7215 21.5304 35.4698 23.9102 36.7393 26.1166C37.0283 26.6164 37.6812 27.3338 36.7367 27.7015C36.391 27.8361 35.5033 27.3467 35.2917 26.9246C33.8029 23.9543 32.5617 20.8855 32.3682 17.3973Z" fill="black"/>
<path d="M67.2809 23.0038C66.1378 24.9513 65.3018 26.4791 64.3341 27.919C64.1767 28.1547 63.4387 27.9967 62.9717 28.02C63.0594 27.6445 63.0749 27.2327 63.2478 26.9013C63.8955 25.6479 64.5664 24.4048 65.2966 23.1981C65.4772 22.9003 65.9004 22.6542 66.2488 22.5921C66.5197 22.5403 66.8474 22.8148 67.2809 23.0038Z" fill="black"/>
<path d="M91.8201 43.4854C90.1996 37.7545 92.7232 23.1256 95.8584 21.0331C96.3074 28.9238 94.6637 36.1489 91.8201 43.4854Z" fill="white"/>
<path d="M56.49 34.4242C55.9404 38.4848 54.4644 41.7866 51.995 44.6041C51.6208 45.0314 50.6893 45.4147 50.2687 45.2308C49.8223 45.0366 49.4068 44.1302 49.4404 43.5605C49.6416 40.0282 50.8183 36.8378 53.1535 34.1368C53.4038 33.8467 53.6954 33.5386 54.036 33.3961C54.6398 33.1424 55.4501 32.6969 55.881 32.9145C56.3042 33.1268 56.3635 34.0669 56.49 34.4242Z" fill="white"/>
<path d="M14.2232 48.0665C15.8824 50.6147 15.5934 52.9247 13.2788 54.4759C12.1847 55.2113 10.8068 55.5946 9.50367 55.9079C8.95663 56.04 8.06124 55.7448 7.71289 55.3227C7.48065 55.043 7.75417 54.0253 8.11543 53.6239C9.37207 52.2306 10.7397 50.9384 12.115 49.6591C12.7343 49.0816 13.4671 48.631 14.2232 48.0665Z" fill="white"/>
<path d="M23.2695 39.9972C23.6772 36.9517 24.2681 34.3388 25.8189 32.0469C26.8046 30.5915 28.0923 30.0192 29.0057 30.5423C29.865 31.037 30.0224 32.5441 29.3025 34.0824C28.0845 36.6876 25.8447 38.2466 23.2695 39.9972Z" fill="white"/>
<path d="M81.7203 38.4304C81.6403 34.2999 81.372 30.1513 82.608 26.1089C82.7576 25.6168 83.3279 25.2543 83.702 24.8322C84.0014 25.3501 84.5484 25.8654 84.5536 26.3859C84.5716 27.8361 84.52 29.3252 84.213 30.7366C83.6453 33.3547 82.8763 35.9314 82.1925 38.5236C82.0351 38.4951 81.8777 38.4615 81.7203 38.4304Z" fill="white"/>
<path d="M57.4052 46.0259C57.3846 49.1153 57.1782 51.7879 56.0247 54.3024C55.937 54.4966 55.8467 54.7426 55.6841 54.8385C55.0287 55.2295 54.2752 55.952 53.6869 55.8432C52.6728 55.6542 52.8663 54.5406 53.0392 53.7741C53.6895 50.9048 55.1139 48.4472 57.4052 46.0259Z" fill="white"/>
</g>
<defs>
<clipPath id="clip0_2_247">
<rect width="100" height="59" fill="white"/>
</clipPath>
</defs>
</svg>
