<svg width="136" height="27" viewBox="0 0 136 27" fill="none" xmlns="http://www.w3.org/2000/svg">
<g opacity="0.4" clip-path="url(#clip0_2_236)">
<path d="M35.4131 2.32929C35.4439 2.14363 35.4407 2.11555 35.452 2.09371C36.5258 0.0202637 36.5258 0.0202637 38.946 0.0202637C64.458 0.0202637 89.9717 0.0202637 115.484 0.0202637C115.798 0.0202637 116.115 0.0202637 116.582 0.0202637C116.131 0.780058 115.787 1.45404 115.341 2.0547C115.206 2.23724 114.783 2.28873 114.493 2.28873C109.438 2.30277 104.386 2.29809 99.3311 2.29809C91.9523 2.29809 84.5751 2.30589 77.1962 2.28249C76.5669 2.28092 76.2457 2.46814 75.9456 2.99548C71.5806 10.6667 67.1783 18.3193 62.8278 25.9984C62.4077 26.7394 61.9698 27.039 61.0874 26.9828C59.801 26.9001 58.505 26.961 57.0354 26.961C61.7281 18.714 66.3542 10.5841 71.0534 2.32617C59.1003 2.32929 47.2867 2.32929 35.4131 2.32929Z" fill="black"/>
<path d="M126.533 0.0218646C123.928 4.24676 121.417 8.32032 118.817 12.5374C120.162 12.5374 121.338 12.5655 122.512 12.5109C122.718 12.5015 122.957 12.1755 123.098 11.9477C125.388 8.24387 127.678 4.53851 129.932 0.814422C130.284 0.230925 130.652 -0.0296204 131.383 0.00158264C132.866 0.067109 134.353 0.0218646 136 0.0218646C135.789 0.38382 135.633 0.663087 135.468 0.936114C130.301 9.42646 125.132 17.9153 119.977 26.4134C119.727 26.8253 119.455 26.986 118.958 26.9766C117.419 26.947 115.879 26.9657 114.157 26.9657C116.6 22.8531 118.981 18.8467 121.459 14.6764C120.105 14.6764 118.931 14.6483 117.761 14.7029C117.552 14.7123 117.304 15.0274 117.166 15.2536C115.012 18.8233 112.848 22.3867 110.75 25.9875C110.309 26.7457 109.826 27.0406 108.924 26.9875C107.561 26.9064 106.191 26.9673 104.676 26.9673C105.377 25.7987 106.001 24.7472 106.634 23.7019C111.274 16.029 115.922 8.35932 120.543 0.675569C120.843 0.17788 121.154 -0.00309782 121.743 0.0109436C123.278 0.0483872 124.817 0.0218646 126.533 0.0218646Z" fill="black"/>
<path d="M31.5963 0.0374537C31.1097 0.800368 30.7366 1.45875 30.2759 2.05785C30.1445 2.22947 29.765 2.28875 29.4989 2.29031C26.7154 2.30592 23.9303 2.36208 21.1485 2.27471C19.6772 2.22947 18.7883 2.81609 18.0779 3.98308C15.4566 8.28286 12.7834 12.5514 10.141 16.8387C8.86121 18.9153 7.6041 21.0043 6.34212 23.0903C6.22047 23.2915 6.09395 23.499 6.02582 23.719C5.81981 24.3743 6.1199 24.8096 6.83199 24.833C7.80362 24.8642 8.77849 24.8626 9.75011 24.8267C9.97234 24.8189 10.2789 24.6645 10.3925 24.4866C12.3016 21.502 14.1881 18.505 16.0762 15.5079C16.0989 15.472 16.0795 15.4096 16.0795 15.2911C15.3155 15.2911 14.5466 15.2911 13.5798 15.2911C13.9902 14.564 14.3114 13.9587 14.678 13.3799C14.7526 13.2613 15.0008 13.1864 15.1679 13.1864C17.708 13.1817 20.2466 13.1927 22.7868 13.202C22.8322 13.202 22.8776 13.2488 23.0025 13.3175C22.4672 14.2036 21.9368 15.0914 21.3999 15.976C19.2912 19.4504 17.1728 22.9202 15.0819 26.4056C14.8175 26.8471 14.5239 27.0031 13.9967 27C10.0778 26.9782 6.15883 26.9891 2.24151 26.9891C0.601583 26.9891 -0.311648 25.8845 0.0971165 24.3181C0.239859 23.7736 0.499392 23.2416 0.792989 22.7533C4.70382 16.2318 8.64548 9.72912 12.5466 3.20456C13.7307 1.22473 15.5312 0.131063 17.8102 0.071777C22.3456 -0.0452344 26.8858 0.0374537 31.5963 0.0374537Z" fill="black"/>
<path d="M20.4629 26.986C21.0112 26.0468 21.4783 25.237 21.9552 24.4336C25.5254 18.4176 29.1037 12.4079 32.6593 6.38415C33.0681 5.69301 33.6472 5.35757 34.4241 5.35289C37.558 5.33573 40.6919 5.30609 43.8241 5.35445C45.8614 5.38566 46.6141 6.59945 45.6781 8.32342C44.7292 10.0708 43.6976 11.776 42.6675 13.4797C42.1679 14.3066 41.2612 14.5672 40.3707 14.8059C39.4477 15.0524 39.4347 15.0914 39.9149 15.8558C40.481 16.7576 40.2993 17.65 39.8111 18.5128C38.7405 20.4037 37.6229 22.2712 36.5912 24.1808C36.1354 25.0249 35.8418 25.95 35.4152 26.9828C34.15 26.9828 32.6123 27.0094 31.0778 26.9719C30.3251 26.9532 30.3754 26.3104 30.4289 25.8611C30.4825 25.4149 30.7112 24.9702 30.9367 24.5615C32.4192 21.8827 33.9229 19.2148 35.4168 16.5423C35.9002 15.678 35.6602 15.3379 34.6642 15.2349C33.4168 15.1054 32.6447 15.4455 31.9894 16.5954C30.1126 19.8951 28.0494 23.0965 26.0866 26.351C25.8109 26.8081 25.5222 27.014 24.9528 26.9984C23.527 26.9594 22.0963 26.986 20.4629 26.986ZM34.2068 13.1755C34.8767 13.1755 35.3844 13.1225 35.8759 13.1864C37.0389 13.3362 37.7835 12.8073 38.3074 11.8915C38.9822 10.712 39.657 9.53254 40.2977 8.33434C40.6529 7.67128 40.4323 7.314 39.6732 7.19075C38.1209 6.93957 37.7607 7.1065 36.9757 8.43887C36.8962 8.57461 36.8118 8.70722 36.7323 8.84139C35.9213 10.2346 35.1103 11.6278 34.2068 13.1755Z" fill="black"/>
<path d="M75.8144 20.7547C75.2045 21.8063 74.6724 22.7002 74.1663 23.6082C73.7268 24.3945 73.9506 24.7331 74.8655 24.8423C75.8663 24.9624 76.5167 24.7425 77.0342 23.7627C78.4259 21.1276 79.9734 18.5689 81.4576 15.9791C81.5711 15.7794 81.6652 15.5703 81.8436 15.2162C81.3862 15.2162 81.0521 15.224 80.7179 15.2146C79.4251 15.1818 78.1177 15.2411 76.8411 15.0804C75.5824 14.9213 75.0974 14.018 75.464 12.8463C75.5711 12.5015 75.7138 12.1583 75.902 11.8494C76.945 10.1223 77.9993 8.39986 79.0666 6.68525C79.623 5.79284 80.473 5.33884 81.55 5.33416C84.2784 5.32168 87.0067 5.31856 89.7367 5.3326C91.0733 5.33884 91.9135 5.89894 92.019 6.85999C92.0563 7.20634 92.0141 7.61198 91.8535 7.91465C91.3896 8.7899 91.0052 9.804 90.2752 10.4109C89.8162 10.7916 88.7878 10.5529 88.0157 10.5654C87.1316 10.581 86.2476 10.5685 85.2014 10.5685C85.6701 9.79464 86.0838 9.13781 86.4698 8.46539C86.9532 7.62446 86.6969 7.23599 85.7091 7.14082C84.7585 7.04877 84.1178 7.26407 83.662 8.18612C82.9564 9.6121 82.0724 10.9554 81.2678 12.3361C81.1413 12.5545 81.0407 12.7854 80.8639 13.138C82.1908 13.138 83.3943 13.138 84.5979 13.138C87.2873 13.1396 88.1065 14.4127 86.7975 16.6499C85.0245 19.6798 83.2046 22.6846 81.383 25.6864C80.8866 26.5039 80.0886 26.9407 79.1023 26.947C76.3205 26.9672 73.537 26.9938 70.7551 26.947C68.648 26.9111 67.9067 25.663 68.8735 23.8625C69.3682 22.942 69.9197 22.0465 70.4842 21.1635C70.6042 20.9747 70.8881 20.7734 71.1022 20.7688C72.6075 20.7391 74.1177 20.7547 75.8144 20.7547Z" fill="black"/>
<path d="M104.076 10.5809C104.553 9.75094 104.976 9.03639 105.377 8.31092C105.713 7.70246 105.526 7.30306 104.809 7.2157C104.224 7.14549 103.619 7.14705 103.032 7.19853C102.822 7.21726 102.569 7.44036 102.451 7.63538C99.1872 12.9883 95.9349 18.3458 92.6924 23.7096C92.2528 24.4367 92.4912 24.7939 93.3931 24.8407C95.4678 24.9484 95.4613 24.9453 96.5318 23.2026C97.0249 22.3991 97.3672 21.3086 98.1069 20.9045C98.8465 20.4988 99.9966 20.7843 100.968 20.7719C101.559 20.7656 102.149 20.7703 102.903 20.7703C102.511 21.4287 102.186 21.9794 101.857 22.5286C101.275 23.4943 100.678 24.4523 100.109 25.4242C99.5116 26.443 98.6324 26.9688 97.4061 26.9657C94.7849 26.9594 92.162 26.9703 89.5407 26.9563C89.1416 26.9547 88.7313 26.8955 88.3436 26.7956C87.2195 26.507 86.6696 25.6973 87.1384 24.6738C87.7986 23.2338 88.6274 21.8577 89.4547 20.4957C92.2349 15.9229 95.0493 11.3719 97.8409 6.80694C98.4313 5.84276 99.3169 5.36223 100.443 5.34975C102.983 5.32167 105.526 5.28579 108.065 5.37628C108.756 5.40124 109.53 5.74447 110.073 6.16727C110.375 6.4013 110.485 7.17981 110.326 7.58233C109.948 8.54182 109.367 9.42955 108.842 10.3313C108.769 10.4561 108.545 10.5669 108.388 10.5685C106.993 10.5887 105.598 10.5809 104.076 10.5809Z" fill="black"/>
<path d="M59.8998 13.1256C59.4505 13.8214 59.1212 14.4111 58.7027 14.9354C58.5599 15.1132 58.195 15.199 57.9306 15.2037C56.5794 15.2302 55.2282 15.1928 53.877 15.2349C53.5883 15.2443 53.1746 15.4221 53.0449 15.6437C51.3514 18.5377 49.6985 21.4552 48.0408 24.368C47.9807 24.4741 47.9678 24.6036 47.9013 24.8252C49.7391 24.8252 51.5023 24.8252 53.3952 24.8252C52.9946 25.5319 52.6767 26.1248 52.3214 26.6958C52.2419 26.8237 52.0327 26.9501 51.8835 26.9501C48.2711 26.9641 44.6587 26.961 40.8906 26.961C41.7503 25.4711 42.5435 24.095 43.3383 22.7205C46.4365 17.3707 49.5558 12.0303 52.6199 6.66186C53.1714 5.69457 53.8754 5.29361 55.0092 5.31077C58.0879 5.35445 61.1682 5.32637 64.4091 5.32637C64.0718 5.93015 63.8171 6.4606 63.4829 6.93957C63.3856 7.07998 63.0644 7.12679 62.8438 7.12835C61.384 7.14395 59.9241 7.11899 58.4659 7.15331C58.195 7.15955 57.8073 7.31244 57.6824 7.51682C56.6345 9.24235 55.6353 10.9944 54.6231 12.7387C54.5745 12.8229 54.5453 12.9196 54.4609 13.1225C56.2874 13.1256 58.0182 13.1256 59.8998 13.1256Z" fill="black"/>
<path d="M34.2061 13.1755C35.1079 11.6278 35.9206 10.2346 36.7316 8.84291C36.8111 8.70718 36.8955 8.57457 36.9749 8.4404C37.76 7.10802 38.1201 6.94109 39.6725 7.19227C40.4316 7.31553 40.6506 7.6728 40.297 8.33587C39.6562 9.5325 38.9815 10.712 38.3067 11.893C37.7827 12.8088 37.0382 13.3377 35.8752 13.1879C35.3837 13.1224 34.876 13.1755 34.2061 13.1755Z" fill="white"/>
</g>
<defs>
<clipPath id="clip0_2_236">
<rect width="136" height="27" fill="white"/>
</clipPath>
</defs>
</svg>
